<?xml version="1.0" encoding="UTF-8" standalone="no"?>
<!-- Created with Inkscape (http://www.inkscape.org/) -->

<svg
   xmlns:dc="http://purl.org/dc/elements/1.1/"
   xmlns:cc="http://creativecommons.org/ns#"
   xmlns:rdf="http://www.w3.org/1999/02/22-rdf-syntax-ns#"
   xmlns:svg="http://www.w3.org/2000/svg"
   xmlns="http://www.w3.org/2000/svg"
   xmlns:sodipodi="http://sodipodi.sourceforge.net/DTD/sodipodi-0.dtd"
   xmlns:inkscape="http://www.inkscape.org/namespaces/inkscape"
   width="128"
   height="128"
   id="svg2"
   version="1.1"
   inkscape:version="0.48.3.1 r9886"
   sodipodi:docname="activities-icon.svg"
   inkscape:export-filename="/home/mokush/.project-neon-kde/share/apps/kwin/scripts/arctos-dashboard/contents/images/activitiesIcon2.png"
   inkscape:export-xdpi="45"
   inkscape:export-ydpi="45">
  <defs
     id="defs4" />
  <sodipodi:namedview
     id="base"
     pagecolor="#000000"
     bordercolor="#666666"
     borderopacity="1.0"
     inkscape:pageopacity="0.59215686"
     inkscape:pageshadow="2"
     inkscape:zoom="1.4"
     inkscape:cx="123.2212"
     inkscape:cy="64.159231"
     inkscape:document-units="px"
     inkscape:current-layer="layer1"
     showgrid="true"
     inkscape:window-width="1280"
     inkscape:window-height="735"
     inkscape:window-x="0"
     inkscape:window-y="22"
     inkscape:window-maximized="1"
     gridtolerance="10">
    <inkscape:grid
       type="xygrid"
       id="grid3006"
       empspacing="5"
       visible="true"
       enabled="true"
       snapvisiblegridlinesonly="true"
       units="px" />
  </sodipodi:namedview>
  <metadata
     id="metadata7">
    <rdf:RDF>
      <cc:Work
         rdf:about="">
        <dc:format>image/svg+xml</dc:format>
        <dc:type
           rdf:resource="http://purl.org/dc/dcmitype/StillImage" />
        <dc:title></dc:title>
      </cc:Work>
    </rdf:RDF>
  </metadata>
  <g
     inkscape:label="Layer 1"
     inkscape:groupmode="layer"
     id="layer1"
     transform="translate(0,-924.36218)">
    <path
       style="fill:#ffffff;fill-opacity:1;stroke:none"
       d="M 0 23 L 0 113 L 116 113 L 116 23 L 0 23 z M 38 48 L 48 48 L 48 58 L 38 58 L 38 48 z M 53 48 L 63 48 L 63 58 L 53 58 L 53 48 z M 68 48 L 78 48 L 78 58 L 68 58 L 68 48 z M 38 63 L 48 63 L 48 73 L 38 73 L 38 63 z M 53 63 L 63 63 L 63 73 L 53 73 L 53 63 z M 38 78 L 48 78 L 48 88 L 38 88 L 38 78 z "
       id="rect2984"
       transform="translate(0,924.36218)" />
    <rect
       y="957.36218"
       x="117"
       height="70"
       width="5"
       id="rect3774"
       style="fill:#ffffff;fill-opacity:1;stroke:none" />
    <rect
       style="fill:#ffffff;fill-opacity:1;stroke:none"
       id="rect3776"
       width="5"
       height="49.999996"
       x="123"
       y="967.36218" />
  </g>
</svg>
